<svg width="85" height="70" viewBox="0 0 85 70" fill="none" xmlns="http://www.w3.org/2000/svg">
<g clip-path="url(#clip0_1035_3456)">
<path d="M57.5711 10.3187C57.7485 11.5092 57.5667 12.7253 57.0488 13.813C56.5308 14.9006 55.7 15.8109 54.6615 16.4286C53.623 17.0463 52.4235 17.3435 51.2151 17.2826C50.0066 17.2218 48.8435 16.8056 47.873 16.0868C46.9025 15.368 46.1684 14.3789 45.7635 13.2447C45.3586 12.1106 45.3013 10.8825 45.5986 9.71592C45.896 8.54934 46.5348 7.49678 47.4341 6.69156C48.3334 5.88633 49.4527 5.36466 50.6503 5.19262C51.4431 5.07719 52.2511 5.11822 53.0279 5.31337C53.8048 5.50851 54.5355 5.85395 55.1781 6.32996C55.8208 6.80597 56.3629 7.40323 56.7735 8.08762C57.1841 8.77202 57.4551 9.53016 57.5711 10.3187Z" fill="#F5F5F5"/>
<path d="M56.1324 10.5272C56.2669 11.4341 56.1278 12.3603 55.7328 13.1885C55.3378 14.0167 54.7046 14.7098 53.9134 15.1799C53.1222 15.65 52.2085 15.8761 51.2881 15.8296C50.3676 15.783 49.4817 15.4658 48.7426 14.9182C48.0034 14.3707 47.4442 13.6173 47.1358 12.7535C46.8273 11.8896 46.7835 10.9542 47.0098 10.0656C47.2361 9.17694 47.7224 8.37508 48.4071 7.76147C49.0918 7.14786 49.9442 6.75011 50.8563 6.61855C52.0768 6.44251 53.3178 6.75515 54.3069 7.48789C55.296 8.22063 55.9525 9.31365 56.1324 10.5272Z" fill="#EBEBEB"/>
<path d="M56.1108 10.3839C56.0832 10.3839 56.0337 10.1899 55.9085 9.8497C55.7333 9.3721 55.4848 8.92432 55.1721 8.52221C54.9576 8.24842 54.7136 7.9989 54.4443 7.77812C54.1329 7.52726 53.7905 7.31708 53.4255 7.15273C53.229 7.06328 53.0261 6.98828 52.8185 6.92835C52.378 6.80107 51.9207 6.74056 51.462 6.74884C50.9817 6.75807 50.5058 6.84209 50.0517 6.99783C49.8316 7.07399 49.6175 7.16641 49.4113 7.27434C49.2121 7.37817 49.0213 7.49723 48.8407 7.63046C48.6662 7.75712 48.5017 7.89699 48.3488 8.04883C47.8115 8.57178 47.4116 9.21804 47.1844 9.93077C47.0295 10.4153 46.951 10.9207 46.9515 11.4291C46.9515 11.7924 46.9748 11.9951 46.9515 11.9995C46.9282 12.0038 46.8613 11.8084 46.8176 11.4378C46.7617 10.9089 46.8051 10.3743 46.9457 9.86128C47.0405 9.50762 47.1763 9.16611 47.3503 8.84358C47.557 8.47289 47.8136 8.13196 48.113 7.83023C48.2743 7.66438 48.4486 7.51143 48.634 7.37277C48.8264 7.22592 49.0303 7.09472 49.2439 6.98046C49.4649 6.86109 49.6951 6.75943 49.9323 6.67646C50.1771 6.59319 50.4276 6.52787 50.6819 6.48102C50.9373 6.43769 51.1957 6.4135 51.4548 6.40864C51.706 6.40451 51.9572 6.42097 52.2058 6.45786C52.4456 6.49161 52.6821 6.54487 52.9131 6.6171C53.1351 6.67934 53.3517 6.75921 53.5608 6.85596C54.2862 7.19853 54.9107 7.721 55.3744 8.3731C55.6821 8.807 55.9061 9.29393 56.0352 9.80917C56.1283 10.1725 56.1312 10.381 56.1108 10.3839Z" fill="#E0E0E0"/>
<path d="M52.4469 13.851L52.575 14.6487L51.8589 14.7616L51.7352 13.9871C51.0205 14.0566 50.3044 13.9451 49.8619 13.6975L50.1167 12.7667C50.5723 12.9893 51.0787 13.0891 51.5852 13.0562L51.3931 11.8692C50.5693 11.804 49.6393 11.681 49.4762 10.6647C49.3554 9.9105 49.8008 9.1751 50.9099 8.8682L50.7833 8.07778L51.4979 7.96342L51.6231 8.73936C52.1391 8.6862 52.6603 8.75566 53.1441 8.94203L52.9272 9.87431C52.5599 9.73324 52.168 9.66631 51.7744 9.67743L51.9695 10.8877C52.7918 10.9456 53.7073 11.0701 53.8689 12.0733C53.9882 12.8116 53.5472 13.5383 52.4469 13.851ZM51.233 10.8225L51.07 9.80917C50.7047 9.95393 50.5882 10.1856 50.6261 10.4201C50.6639 10.6546 50.8939 10.7733 51.233 10.8225ZM52.738 12.3397C52.6987 12.0907 52.4687 11.9893 52.1441 11.9314L52.3028 12.9129C52.6405 12.7783 52.7671 12.5684 52.7307 12.3397H52.738Z" fill="#E0E0E0"/>
<path d="M81.8096 54.0435C81.8653 54.0303 81.9225 54.024 81.9799 54.0247L82.4471 53.9971C82.8401 53.974 83.3844 53.9392 83.9826 53.8799C84.5808 53.8205 85.1208 53.7525 85.5109 53.6975L85.9737 53.6352C86.0301 53.6233 86.0878 53.6185 86.1454 53.6208C86.0924 53.643 86.0366 53.6581 85.9795 53.6656C85.8718 53.6888 85.7146 53.7192 85.5196 53.7539C85.131 53.822 84.591 53.8987 83.9899 53.9595C83.3888 54.0203 82.8444 54.0435 82.4485 54.0522C82.2506 54.0522 82.0919 54.0522 81.9813 54.0522C81.9239 54.0569 81.8662 54.054 81.8096 54.0435Z" fill="#E0E0E0"/>
<path d="M79.6279 50.6545C79.6279 50.6545 79.6687 50.6951 79.7284 50.7776C79.788 50.8601 79.8739 50.9788 79.9772 51.1294C80.1825 51.4276 80.4634 51.8445 80.769 52.3063C81.0747 52.7681 81.3512 53.1894 81.5433 53.4963C81.6409 53.6497 81.718 53.7757 81.7704 53.8625C81.8009 53.9076 81.8258 53.9562 81.8446 54.0073C81.8056 53.971 81.7718 53.9296 81.7442 53.8842C81.6845 53.8017 81.5986 53.6816 81.4953 53.5324C81.2901 53.2328 81.0092 52.8173 80.7035 52.3541C80.3979 51.8908 80.1213 51.471 79.9292 51.1641C79.8317 51.0106 79.7545 50.8861 79.7022 50.7978C79.6719 50.7531 79.647 50.705 79.6279 50.6545Z" fill="#E0E0E0"/>
<path d="M76.6846 55.1234C76.7311 55.1721 76.773 55.2249 76.8097 55.2812C76.8942 55.4014 77.0019 55.5519 77.1299 55.7314C77.3963 56.1136 77.7602 56.6449 78.1575 57.2326C78.5549 57.8204 78.9115 58.3574 79.1662 58.7469L79.4645 59.2116C79.5037 59.267 79.5374 59.3262 79.565 59.3882C79.5174 59.3395 79.475 59.2861 79.4383 59.2289L79.1196 58.7787C78.8532 58.3965 78.4894 57.8667 78.0906 57.2775C77.6918 56.6883 77.3366 56.1527 77.0819 55.7633C76.9626 55.578 76.8636 55.4216 76.7835 55.2986C76.7438 55.2442 76.7106 55.1854 76.6846 55.1234Z" fill="#E0E0E0"/>
<path d="M79.5244 59.2666C79.5956 59.2495 79.6682 59.2394 79.7413 59.2362L80.3235 59.1812C80.8212 59.1334 81.5097 59.0668 82.2665 58.9713C83.0234 58.8757 83.7075 58.7744 84.2023 58.6962L84.7845 58.605C84.8558 58.59 84.9285 58.5822 85.0014 58.5818C84.9328 58.6061 84.8622 58.624 84.7903 58.6354C84.6535 58.6658 84.4556 58.7063 84.2081 58.7512C83.7162 58.8439 83.0321 58.9553 82.2738 59.0494C81.5155 59.1435 80.8183 59.2043 80.3249 59.2362C80.0746 59.2521 79.8723 59.2637 79.7325 59.268C79.6633 59.2741 79.5936 59.2736 79.5244 59.2666Z" fill="#E0E0E0"/>
<path d="M37.7548 46.2884L10.0148 37.701C9.6724 37.595 9.38637 37.3581 9.21959 37.0423C9.05282 36.7266 9.01897 36.3579 9.12549 36.0174L14.4598 18.9771C14.5121 18.8078 14.5975 18.6504 14.7112 18.5141C14.8248 18.3777 14.9645 18.2651 15.122 18.1826C15.2796 18.1001 15.4521 18.0495 15.6294 18.0335C15.8068 18.0176 15.9856 18.0367 16.1555 18.0897L43.8969 26.6786C44.2389 26.7846 44.5246 27.0213 44.6911 27.3368C44.8576 27.6523 44.8913 28.0206 44.7847 28.3608L39.4431 45.4054C39.3369 45.7451 39.0994 46.029 38.7828 46.1945C38.4662 46.3601 38.0964 46.3939 37.7548 46.2884Z" fill="#E0E0E0"/>
<path d="M39.2876 30.2572C39.1586 30.6688 38.9097 31.0332 38.5726 31.3042C38.2354 31.5752 37.825 31.7407 37.3933 31.7797C36.9615 31.8187 36.5279 31.7295 36.1471 31.5234C35.7663 31.3173 35.4556 31.0035 35.2541 30.6218C35.0526 30.24 34.9694 29.8074 35.0151 29.3786C35.0609 28.9498 35.2334 28.5442 35.5109 28.2129C35.7884 27.8816 36.1584 27.6397 36.5741 27.5176C36.9899 27.3955 37.4327 27.3987 37.8466 27.5269C38.1216 27.6119 38.377 27.75 38.5983 27.9332C38.8196 28.1165 39.0024 28.3413 39.1362 28.5949C39.2701 28.8485 39.3523 29.1258 39.3783 29.4111C39.4042 29.6963 39.3734 29.9838 39.2876 30.2572Z" fill="white"/>
<path d="M39.4429 32.6429C39.3082 32.6253 39.1753 32.5963 39.0456 32.556C38.4923 32.3818 38.028 32.0021 37.7491 31.4959C37.4702 30.9897 37.3983 30.3961 37.5483 29.8385C37.6984 29.2809 38.0588 28.8024 38.5546 28.5024C39.0504 28.2025 39.6434 28.1042 40.2102 28.2281C40.777 28.352 41.2739 28.6885 41.5975 29.1676C41.9212 29.6467 42.0467 30.2315 41.9478 30.8002C41.849 31.369 41.5334 31.8779 41.0669 32.2211C40.6003 32.5644 40.0186 32.7154 39.4429 32.6429ZM39.9858 28.3144C39.5888 28.2649 39.1858 28.3291 38.8241 28.4994C38.4625 28.6697 38.1572 28.9391 37.9441 29.2759C37.731 29.6128 37.6189 30.0031 37.621 30.4011C37.6231 30.7991 37.7393 31.1882 37.956 31.5228C38.1727 31.8574 38.4808 32.1235 38.8443 32.29C39.2077 32.4565 39.6114 32.5164 40.0079 32.4628C40.4044 32.4091 40.7772 32.244 41.0827 31.9869C41.3881 31.7298 41.6135 31.3914 41.7324 31.0114C41.8977 30.4818 41.8449 29.9085 41.5857 29.4175C41.3265 28.9265 40.8819 28.5579 40.3497 28.3926C40.2284 28.3563 40.1042 28.3301 39.9785 28.3144H39.9858Z" fill="white"/>
<path d="M13.62 31.0693L13.099 32.7428L12.9258 32.6892L13.4017 31.1692L13.0058 31.0462L13.0539 30.8927L13.62 31.0693Z" fill="white"/>
<path d="M14.8749 33.1264L14.8269 33.2799L13.6465 32.9136L13.6858 32.792L14.5984 32.3273C14.8458 32.1985 14.9171 32.0971 14.9535 31.9828C15.0146 31.7888 14.9142 31.6267 14.6624 31.5485C14.5782 31.5168 14.4879 31.5044 14.3982 31.5121C14.3085 31.5199 14.2217 31.5477 14.1443 31.5934L14.054 31.4486C14.1549 31.3909 14.2674 31.3561 14.3833 31.3466C14.4993 31.3371 14.616 31.3532 14.725 31.3936C15.067 31.4993 15.23 31.7396 15.1427 32.019C15.0918 32.1797 14.9972 32.3085 14.7061 32.4533L13.958 32.8354L14.8749 33.1264Z" fill="white"/>
<path d="M16.7382 33.387L16.4005 33.2842L16.2637 33.7185L16.0905 33.6635L16.2273 33.2292L15.2783 32.9397L15.3162 32.8152L16.5562 31.9828L16.7484 32.0421L15.549 32.8557L16.2768 33.083L16.3976 32.695L16.565 32.7471L16.4442 33.1351L16.7804 33.2393L16.7382 33.387Z" fill="white"/>
<path d="M19.3163 34.1861L18.9801 34.0819L18.8418 34.5162L18.6686 34.4626L18.8069 34.0283L17.8564 33.7388L17.8957 33.6143L19.1344 32.7804L19.3265 32.8398L18.1286 33.6548L18.8564 33.8806L18.9772 33.4941L19.146 33.5462L19.0237 33.9328L19.3614 34.037L19.3163 34.1861Z" fill="white"/>
<path d="M20.8046 34.5885C20.7158 34.8781 20.4465 35.0344 20.0346 34.907C19.8109 34.846 19.6192 34.7019 19.499 34.5046L19.6256 34.3946C19.7249 34.5673 19.8886 34.6941 20.0812 34.7478C20.3723 34.8375 20.563 34.7478 20.627 34.5422C20.6911 34.3367 20.6008 34.1514 20.1729 34.0182L19.8149 33.9082L20.1642 33.0946L21.0855 33.3841L21.0375 33.5376L20.2675 33.2987L20.0434 33.8155L20.2602 33.8821C20.7667 34.0326 20.8977 34.2932 20.8046 34.5885Z" fill="white"/>
<path d="M22.469 35.0967C22.3714 35.4108 22.0614 35.531 21.7412 35.434C21.2944 35.2892 21.1474 34.9114 21.3133 34.383C21.4909 33.8141 21.8955 33.6128 22.354 33.7547C22.4943 33.7918 22.622 33.8658 22.7237 33.9689L22.6116 34.0862C22.5299 33.9989 22.4249 33.9366 22.3088 33.9067C21.9464 33.7938 21.6393 33.9545 21.4981 34.409C21.4835 34.4542 21.4714 34.5001 21.4618 34.5466C21.5393 34.469 21.6378 34.4157 21.7454 34.393C21.8529 34.3704 21.9648 34.3795 22.0672 34.4192C22.3933 34.5234 22.5592 34.7912 22.469 35.0967ZM22.2972 35.046C22.3656 34.826 22.2463 34.6349 21.9872 34.5538C21.7281 34.4727 21.5054 34.5784 21.4399 34.7854C21.3817 34.9707 21.4821 35.1922 21.7718 35.282C21.8215 35.304 21.8754 35.3154 21.9298 35.3153C21.9843 35.3152 22.0381 35.3036 22.0878 35.2813C22.1374 35.259 22.1817 35.2265 22.2178 35.186C22.2539 35.1454 22.281 35.0977 22.2972 35.046Z" fill="white"/>
<path d="M24.768 35.8292C24.6792 36.1086 24.4085 36.2635 24.0024 36.1346C23.7779 36.0736 23.5853 35.9296 23.4639 35.7322L23.5905 35.6222C23.691 35.7965 23.8569 35.9241 24.0519 35.9768C24.3299 36.0637 24.5249 35.9768 24.589 35.7742C24.653 35.5715 24.5511 35.3978 24.2396 35.3008L24.1188 35.2631L24.1581 35.1372L24.8073 34.7029L23.9456 34.4365L23.9937 34.2831L25.0765 34.6189L25.0372 34.7405L24.375 35.1893C24.7301 35.3167 24.8509 35.5614 24.768 35.8292Z" fill="white"/>
<path d="M26.4606 36.333C26.3631 36.6456 26.0531 36.7672 25.7256 36.6688C25.2788 36.524 25.1318 36.1462 25.2977 35.6178C25.4752 35.0489 25.8799 34.8491 26.3383 34.991C26.4788 35.0279 26.6065 35.102 26.708 35.2052L26.596 35.3225C26.5145 35.2347 26.4094 35.1719 26.2932 35.1415C25.9294 35.0301 25.6237 35.1893 25.4825 35.6439C25.4677 35.6914 25.4556 35.7398 25.4461 35.7886C25.5232 35.711 25.6215 35.6574 25.7288 35.6345C25.8361 35.6116 25.9478 35.6204 26.0502 35.6598C26.3849 35.7582 26.5567 36.0261 26.4606 36.333ZM26.2889 36.2837C26.3573 36.0651 26.2379 35.8726 25.9788 35.793C25.7198 35.7134 25.4971 35.8161 25.4316 36.0246C25.3734 36.2085 25.4723 36.4299 25.7634 36.5211C25.8133 36.5432 25.8672 36.5545 25.9218 36.5543C25.9763 36.5541 26.0302 36.5424 26.0798 36.52C26.1295 36.4975 26.1738 36.4649 26.2098 36.4241C26.2458 36.3834 26.2728 36.3356 26.2889 36.2837Z" fill="white"/>
<path d="M28.382 35.6381L28.3427 35.7597L27.1536 37.0944L26.9658 37.0351L28.1302 35.7322L27.2656 35.4644L27.1667 35.7771L26.9964 35.7235L27.1419 35.2574L28.382 35.6381Z" fill="white"/>
<path d="M30.7834 36.3822L30.7455 36.5052L29.5549 37.8385L29.3672 37.7806L30.5316 36.4777L29.6583 36.2099L29.5608 36.524L29.389 36.4705L29.5346 36.0043L30.7834 36.3822Z" fill="white"/>
<path d="M32.0614 38.1034C31.9682 38.4002 31.6582 38.5059 31.2565 38.3814C30.8548 38.2569 30.6656 37.9963 30.7587 37.6995C30.7868 37.6039 30.8471 37.5207 30.9296 37.4641C31.012 37.4074 31.1115 37.3806 31.2114 37.3883C31.1414 37.339 31.0893 37.2685 31.0631 37.1873C31.0368 37.1061 31.0378 37.0187 31.0658 36.9381C31.1502 36.6659 31.437 36.5689 31.7936 36.6789C32.1502 36.789 32.3336 37.0322 32.2491 37.3043C32.2256 37.3879 32.1751 37.4615 32.1054 37.5138C32.0357 37.5661 31.9507 37.5942 31.8634 37.5939C31.9501 37.6434 32.017 37.7211 32.053 37.8138C32.0891 37.9066 32.092 38.0088 32.0614 38.1034ZM31.8853 38.0455C31.9493 37.84 31.811 37.6561 31.5127 37.5635C31.2143 37.4708 30.9989 37.5461 30.9305 37.7517C30.8621 37.9572 31.0003 38.144 31.2987 38.2352C31.5971 38.3264 31.8198 38.254 31.8853 38.0455ZM31.5563 37.4274C31.8183 37.5085 32.0104 37.439 32.0672 37.258C32.124 37.077 31.9973 36.9033 31.7441 36.8237C31.4908 36.7441 31.2929 36.8092 31.2347 36.996C31.1764 37.1827 31.2929 37.3463 31.5563 37.4274Z" fill="white"/>
<path d="M33.8156 38.2308C33.6381 38.7997 33.2334 38.9995 32.775 38.8576C32.6344 38.8211 32.5066 38.747 32.4053 38.6434L32.5173 38.5261C32.5984 38.6142 32.7036 38.6767 32.8201 38.7056C33.1825 38.8186 33.4896 38.6593 33.6308 38.2048C33.6439 38.1657 33.6555 38.1179 33.6672 38.06C33.5897 38.1375 33.4911 38.1909 33.3835 38.2135C33.276 38.2362 33.1641 38.2271 33.0617 38.1874C32.7284 38.0846 32.5566 37.8153 32.6527 37.5099C32.7488 37.2044 33.0602 37.0756 33.3804 37.174C33.8346 37.3116 33.9816 37.6952 33.8156 38.2308ZM33.6817 37.824C33.74 37.6402 33.6395 37.4172 33.3499 37.3275C33.3001 37.3056 33.2463 37.2945 33.1919 37.2947C33.1375 37.2949 33.0838 37.3065 33.0342 37.3288C32.9846 37.3511 32.9403 37.3835 32.9042 37.4239C32.8681 37.4643 32.8409 37.5119 32.8245 37.5635C32.7546 37.7835 32.8739 37.976 33.1345 38.0557C33.395 38.1353 33.6206 38.0267 33.6817 37.8182V37.824Z" fill="white"/>
<path d="M35.7812 37.9297L35.2572 39.6046L35.084 39.5511L35.5599 38.0296L35.1626 37.9065L35.2106 37.7531L35.7812 37.9297Z" fill="white"/>
<path d="M37.036 39.9868L36.988 40.1403L35.8047 39.774L35.8425 39.6524L36.7551 39.1877C37.004 39.0603 37.0753 38.959 37.1117 38.8432C37.1714 38.6506 37.0724 38.4885 36.8206 38.4089C36.7365 38.3771 36.6463 38.3645 36.5566 38.372C36.4669 38.3795 36.3801 38.407 36.3025 38.4523L36.2137 38.3076C36.3147 38.2501 36.4272 38.2156 36.5432 38.2063C36.6591 38.1971 36.7757 38.2133 36.8847 38.254C37.2252 38.3597 37.3882 38.5985 37.3009 38.8779C37.25 39.0386 37.1554 39.1675 36.8643 39.3122L36.1176 39.6944L37.036 39.9868Z" fill="white"/>
<path d="M38.6479 40.1272C38.5605 40.4066 38.2884 40.5615 37.8808 40.4327C37.6572 40.3706 37.4654 40.2269 37.3438 40.0302L37.4704 39.9202C37.5715 40.0934 37.7365 40.2207 37.9303 40.2749C38.2098 40.3618 38.4048 40.2749 38.4688 40.0722C38.5329 39.8696 38.431 39.6958 38.1195 39.5988L37.9987 39.5612L38.038 39.4353L38.6872 39.001L37.8255 38.7346L37.8735 38.5812L38.9564 38.9156L38.9186 39.0386L38.2549 39.4859C38.61 39.6148 38.7308 39.8594 38.6479 40.1272Z" fill="white"/>
<path d="M25.1846 37.8468L24.957 38.5738L38.4386 42.7477L38.6662 42.0206L25.1846 37.8468Z" fill="white"/>
<path d="M31.2979 41.3325L31.0703 42.0596L37.9855 44.2005L38.213 43.4735L31.2979 41.3325Z" fill="white"/>
<g opacity="0.5">
<path d="M19.3295 26.6422L15.0506 25.3175C14.6699 25.1996 14.2653 25.411 14.1468 25.7897L13.2604 28.6219C13.1419 29.0005 13.3545 29.403 13.7351 29.5209L18.0141 30.8456C18.3948 30.9635 18.7994 30.7521 18.9179 30.3734L19.8043 27.5412C19.9228 27.1626 19.7102 26.7601 19.3295 26.6422Z" fill="#EBEBEB"/>
</g>
<path d="M13.4092 28.1436L13.4936 27.8744L16.4046 28.7762C16.4853 28.8036 16.5708 28.8145 16.6558 28.8085C16.7409 28.8024 16.8239 28.7795 16.9 28.741C16.976 28.7026 17.0435 28.6494 17.0986 28.5845C17.1536 28.5197 17.195 28.4446 17.2204 28.3636C17.2457 28.2826 17.2545 28.1973 17.2463 28.1129C17.238 28.0284 17.2128 27.9465 17.1721 27.8719C17.1315 27.7973 17.0763 27.7315 17.0097 27.6785C16.9431 27.6255 16.8665 27.5862 16.7844 27.5631L13.8735 26.6612L13.9579 26.392L16.8689 27.2939C16.988 27.3267 17.0993 27.383 17.1961 27.4595C17.2929 27.536 17.3733 27.631 17.4324 27.739C17.4916 27.8469 17.5284 27.9656 17.5405 28.088C17.5527 28.2104 17.54 28.3339 17.5032 28.4513C17.4665 28.5687 17.4064 28.6775 17.3265 28.7714C17.2466 28.8652 17.1485 28.9421 17.0382 28.9976C16.9278 29.053 16.8074 29.0858 16.6841 29.094C16.5607 29.1023 16.437 29.0858 16.3201 29.0455L13.4092 28.1436Z" fill="#E0E0E0"/>
<path d="M17.2932 28.4392L17.208 28.7073L19.1977 29.3323L19.2829 29.0641L17.2932 28.4392Z" fill="#E0E0E0"/>
<path d="M30.6622 26.356L16.1133 21.8517L15.7248 23.0929L30.2737 27.5972L30.6622 26.356Z" fill="white"/>
<path d="M20.6285 54.3706C20.7403 55.123 20.6252 55.8914 20.2977 56.5787C19.9703 57.266 19.4452 57.8412 18.7889 58.2315C18.1327 58.6218 17.3747 58.8097 16.6111 58.7714C15.8474 58.7331 15.1123 58.4703 14.4988 58.0163C13.8854 57.5623 13.4212 56.9374 13.1649 56.2209C12.9086 55.5043 12.8718 54.7283 13.0592 53.9909C13.2466 53.2536 13.6497 52.5881 14.2175 52.0787C14.7853 51.5693 15.4922 51.2389 16.2489 51.1294C16.7505 51.0561 17.2616 51.0819 17.7531 51.2052C18.2447 51.3285 18.707 51.5468 19.1136 51.8478C19.5203 52.1488 19.8634 52.5265 20.1233 52.9594C20.3832 53.3922 20.5549 53.8718 20.6285 54.3706Z" fill="#F5F5F5"/>
<path d="M19.7185 54.5024C19.8038 55.076 19.716 55.6618 19.4663 56.1858C19.2166 56.7098 18.8163 57.1483 18.3159 57.4458C17.8155 57.7433 17.2376 57.8865 16.6554 57.8572C16.0732 57.8279 15.5128 57.6274 15.0452 57.2812C14.5776 56.9349 14.2237 56.4585 14.0285 55.9121C13.8333 55.3658 13.8054 54.7741 13.9484 54.212C14.0915 53.6499 14.399 53.1426 14.832 52.7544C15.2651 52.3662 15.8042 52.1145 16.3811 52.0312C17.153 51.9194 17.938 52.1168 18.5638 52.5801C19.1895 53.0434 19.6048 53.7348 19.7185 54.5024Z" fill="#EBEBEB"/>
<path d="M19.7035 54.4112C19.6491 54.3035 19.6061 54.1904 19.5754 54.0739C19.4644 53.7719 19.3073 53.4887 19.1096 53.2342C18.7334 52.7479 18.2115 52.393 17.6192 52.2209C17.4831 52.1802 17.3439 52.1507 17.203 52.1326C17.0583 52.1131 16.9123 52.1044 16.7663 52.1065C16.6146 52.111 16.4634 52.1255 16.3137 52.1499C16.1657 52.1781 16.0198 52.2163 15.877 52.2643C15.7378 52.3123 15.6026 52.3709 15.4724 52.4395C15.2258 52.5697 14.9994 52.7345 14.8 52.9288C14.619 53.1051 14.4619 53.3041 14.3328 53.5209C14.2202 53.7106 14.129 53.9121 14.0606 54.1216C13.9636 54.4279 13.9145 54.7473 13.915 55.0684C13.9289 55.1886 13.9289 55.3101 13.915 55.4303C13.8627 55.3186 13.834 55.1974 13.8306 55.0742C13.7964 54.7396 13.8241 54.4015 13.9121 54.0768C13.9743 53.8514 14.0622 53.6338 14.1741 53.4282C14.3053 53.1924 14.4678 52.9752 14.6573 52.7826C14.7591 52.6776 14.8691 52.5808 14.9863 52.493C15.1082 52.4007 15.2372 52.318 15.372 52.2455C15.5123 52.1707 15.6583 52.1068 15.8086 52.0544C15.9635 52.0016 16.1221 51.9599 16.2831 51.9299C16.4447 51.9024 16.6082 51.8869 16.7721 51.8836C16.9309 51.8817 17.0896 51.8923 17.2466 51.9154C17.3985 51.9366 17.5485 51.97 17.6949 52.0153C17.8351 52.0581 17.9718 52.1113 18.1039 52.1746C18.5627 52.3912 18.9577 52.7218 19.2508 53.1343C19.4464 53.4085 19.5895 53.7162 19.6729 54.042C19.7099 54.1614 19.7204 54.2874 19.7035 54.4112Z" fill="#E0E0E0"/>
<path d="M17.385 56.6044L17.4665 57.1081L17.0139 57.1805L16.9353 56.6898C16.5317 56.7417 16.1216 56.6795 15.752 56.5103L15.9121 55.9211C16.2008 56.0598 16.5207 56.1216 16.8407 56.1006L16.7199 55.3492C16.1974 55.3087 15.6108 55.232 15.5075 54.5878C15.4303 54.1115 15.7127 53.6468 16.4142 53.4514L16.3342 52.9519L16.7854 52.8796L16.8654 53.3703C17.1918 53.337 17.5216 53.3811 17.8275 53.4992L17.6907 54.0883C17.4588 53.9993 17.2114 53.957 16.9629 53.9638L17.0867 54.7297C17.6077 54.7658 18.1855 54.8455 18.2874 55.4795C18.3602 55.9471 18.0822 56.406 17.385 56.6044ZM16.6136 54.6891L16.5103 54.0493C16.2789 54.1419 16.2046 54.2881 16.2294 54.4358C16.2541 54.5834 16.404 54.6573 16.6136 54.6891ZM17.5655 55.6489C17.5408 55.4911 17.3952 55.4274 17.19 55.3898L17.2904 56.0108C17.5087 55.9254 17.5888 55.7922 17.5655 55.6489Z" fill="#E0E0E0"/>
<path d="M46.721 48.1501L24.1931 24.4492C24.0793 24.3291 24.0181 24.169 24.0227 24.0041C24.0273 23.8391 24.0975 23.6827 24.2178 23.5691L39.0069 9.66586C39.0667 9.60966 39.1369 9.56572 39.2137 9.53655C39.2905 9.50737 39.3723 9.49353 39.4545 9.49582C39.5367 9.4981 39.6176 9.51647 39.6927 9.54987C39.7677 9.58327 39.8354 9.63104 39.8919 9.69047L62.4183 33.3928C62.5321 33.5129 62.5933 33.673 62.5887 33.838C62.584 34.0029 62.5139 34.1593 62.3936 34.273L47.6074 48.1704C47.548 48.2272 47.4779 48.2718 47.4011 48.3016C47.3243 48.3314 47.2423 48.3458 47.1599 48.3439C47.0775 48.342 46.9963 48.3239 46.921 48.2906C46.8456 48.2574 46.7777 48.2096 46.721 48.1501Z" fill="#13829F"/>
<g opacity="0.3">
<path d="M46.721 48.1501L24.1931 24.4492C24.0793 24.3291 24.0181 24.169 24.0227 24.0041C24.0273 23.8391 24.0975 23.6827 24.2178 23.5691L39.0069 9.66586C39.0667 9.60966 39.1369 9.56572 39.2137 9.53655C39.2905 9.50737 39.3723 9.49353 39.4545 9.49582C39.5367 9.4981 39.6176 9.51647 39.6927 9.54987C39.7677 9.58327 39.8354 9.63104 39.8919 9.69047L62.4183 33.3928C62.5321 33.5129 62.5933 33.673 62.5887 33.838C62.584 34.0029 62.5139 34.1593 62.3936 34.273L47.6074 48.1704C47.548 48.2272 47.4779 48.2718 47.4011 48.3016C47.3243 48.3314 47.2423 48.3458 47.1599 48.3439C47.0775 48.342 46.9963 48.3239 46.921 48.2906C46.8456 48.2574 46.7777 48.2096 46.721 48.1501Z" fill="black"/>
</g>
<path d="M62.2525 33.2191L40.0536 9.86418C39.9756 9.7818 39.882 9.71554 39.7782 9.6692C39.6744 9.62285 39.5625 9.59734 39.4488 9.59411C39.3351 9.59088 39.2218 9.61 39.1156 9.65039C39.0093 9.69077 38.9121 9.75161 38.8295 9.82943L34.629 13.7801C34.5874 13.8187 34.5561 13.8669 34.5379 13.9204C34.5196 13.974 34.5149 14.0312 34.5242 14.087C34.9448 16.4235 36.6244 18.5124 38.6272 19.8964C41.0462 21.5684 43.9135 22.45 46.6323 23.5662C49.3512 24.6823 52.0918 26.1531 53.7263 28.5924C55.2677 30.8956 55.6315 33.7518 56.4161 36.4097C56.6294 37.1318 56.896 37.8373 57.2137 38.5204C57.2368 38.57 57.2714 38.6134 57.3147 38.6471C57.358 38.6808 57.4087 38.7039 57.4627 38.7143C57.5167 38.7248 57.5724 38.7224 57.6252 38.7073C57.6781 38.6922 57.7266 38.6648 57.7667 38.6275L62.2191 34.4409C62.3024 34.3632 62.3695 34.2698 62.4163 34.1661C62.4632 34.0624 62.4889 33.9505 62.492 33.8369C62.4952 33.7233 62.4756 33.6102 62.4345 33.5041C62.3934 33.3981 62.3315 33.3012 62.2525 33.2191Z" fill="#13829F"/>
<path d="M39.7259 16.6609C39.525 16.8505 39.2572 16.8056 38.969 16.4973L38.4014 15.8994L39.5658 14.8079L40.1014 15.3725C40.3765 15.662 40.3925 15.924 40.2164 16.0963C40.1646 16.1473 40.0994 16.1825 40.0282 16.1979C39.9571 16.2133 39.883 16.2082 39.8146 16.1832C39.8557 16.2612 39.8692 16.3507 39.8531 16.4373C39.8371 16.5239 39.7922 16.6026 39.7259 16.6609ZM39.6123 15.2639L39.3387 15.5216L39.589 15.7923C39.7128 15.9226 39.8263 15.9501 39.918 15.8647C40.0097 15.7793 39.9864 15.6663 39.8627 15.5361L39.6123 15.2639ZM39.4973 16.3656C39.5949 16.2744 39.5716 16.1557 39.4391 16.0167L39.148 15.7054L38.8569 15.9747L39.148 16.2874C39.2848 16.4264 39.3984 16.4597 39.4973 16.3714V16.3656Z" fill="white"/>
<path d="M40.5734 17.6887L40.0625 17.1516L39.7161 17.2834L39.457 17.0098L41.1075 16.4307L41.3579 16.6956L40.6884 18.304L40.4206 18.0231L40.5734 17.6887ZM40.6971 17.4122L40.9678 16.8114L40.3492 17.046L40.6971 17.4122Z" fill="white"/>
<path d="M42.969 18.3981L41.8046 19.4896L41.5994 19.2666L41.758 18.0289L41.0521 18.6876L40.8018 18.4227L41.9661 17.3311L42.1772 17.5526L42.0171 18.7889L42.723 18.1259L42.969 18.3981Z" fill="white"/>
<path d="M42.9237 19.7487H42.6136L42.3226 20.0252L42.0635 19.7574L43.2279 18.6644L43.4797 18.9308L42.9368 19.4404H43.9658L44.2482 19.7299L43.2759 19.7386L43.1158 20.8591L42.8247 20.5478L42.9237 19.7487Z" fill="white"/>
<path d="M34.6902 20.9865L34.4951 20.7737L34.204 21.0371L34.1007 20.9286L34.3816 20.6651L33.8125 20.0672L33.8911 19.9919L35.1326 19.8891L35.2476 20.0107L34.0439 20.1164L34.4806 20.5768L34.7265 20.3437L34.827 20.4508L34.581 20.6825L34.7818 20.8938L34.6902 20.9865Z" fill="white"/>
<path d="M35.4575 21.7407C35.2785 21.9072 35.0209 21.9086 34.7764 21.6524C34.6387 21.5167 34.5581 21.334 34.5508 21.1414L34.6876 21.1124C34.6895 21.2795 34.7574 21.4392 34.8768 21.5568C35.0442 21.7334 35.2174 21.7523 35.3498 21.6278C35.4823 21.5033 35.4765 21.3382 35.2902 21.1428L35.2174 21.0675L35.2989 20.9908L35.948 20.9372L35.4328 20.3944L35.5303 20.3032L36.178 20.985L36.1009 21.0574L35.4357 21.1139C35.6395 21.3527 35.6278 21.5829 35.4575 21.7407Z" fill="white"/>
<path d="M36.2788 22.5962C36.0969 22.7671 35.8422 22.7743 35.5904 22.5152C35.4526 22.3803 35.3723 22.1978 35.3662 22.0056L35.503 21.9767C35.506 22.14 35.5728 22.2958 35.6893 22.4109C35.8596 22.5919 36.0386 22.6049 36.1682 22.4819C36.2977 22.3588 36.3137 22.1924 36.0547 21.9187L35.8392 21.6929L36.4214 21.2456L36.9731 21.8246L36.8755 21.9159L36.42 21.4381L36.0445 21.7204L36.174 21.8652C36.4782 22.1721 36.4666 22.4124 36.2788 22.5962Z" fill="white"/>
<path d="M37.1714 23.5198C37.1251 23.5628 37.0703 23.5958 37.0105 23.6165C36.9507 23.6373 36.8872 23.6454 36.824 23.6403C36.7609 23.6353 36.6995 23.6172 36.6438 23.5872C36.5881 23.5573 36.5392 23.5161 36.5004 23.4663C36.2326 23.184 36.2836 22.8467 36.6198 22.5297C36.9822 22.1895 37.3577 22.2083 37.6313 22.4964C37.7191 22.5802 37.782 22.6863 37.8133 22.8033L37.6823 22.8423C37.6604 22.7453 37.6097 22.657 37.5367 22.589C37.3199 22.3603 37.0331 22.3516 36.7435 22.6237C36.7187 22.6469 36.6896 22.6773 36.6605 22.7106C36.7483 22.6853 36.8415 22.6862 36.9288 22.7133C37.016 22.7403 37.0933 22.7922 37.151 22.8626C37.3519 23.0725 37.3664 23.3374 37.1714 23.5198ZM37.0666 23.4156C37.2122 23.2839 37.1991 23.0971 37.0433 22.9335C37.0155 22.8966 36.9803 22.8658 36.94 22.843C36.8997 22.8201 36.8551 22.8058 36.809 22.8007C36.7629 22.7957 36.7162 22.8002 36.6719 22.8138C36.6276 22.8274 36.5866 22.85 36.5514 22.88C36.4335 22.99 36.4146 23.1912 36.5892 23.3736C36.6162 23.4098 36.6505 23.44 36.69 23.462C36.7295 23.484 36.7733 23.4975 36.8184 23.5014C36.8635 23.5054 36.909 23.4998 36.9518 23.485C36.9946 23.4702 37.0337 23.4466 37.0666 23.4156Z" fill="white"/>
<path d="M39.0313 26.1111L39.1259 25.5436L38.5437 25.6044L38.4287 25.4828L39.1404 25.4105L39.2438 24.7445L39.3602 24.8661L39.2729 25.4003L39.8143 25.3439L39.9264 25.4626L39.2525 25.5292L39.1434 26.2342L39.0313 26.1111Z" fill="white"/>
<path d="M39.8003 26.9204L39.8949 26.3514L39.3127 26.4122L39.1963 26.2906L39.908 26.2197L40.0128 25.5538L40.1278 25.6739L40.0419 26.2081L40.5819 26.1531L40.6954 26.2718L40.0201 26.3384L39.9109 27.0434L39.8003 26.9204Z" fill="white"/>
<path d="M40.5684 27.7281L40.663 27.1607L40.0808 27.2215L39.9658 27.0999L40.6761 27.0289L40.7809 26.3616L40.8959 26.4832L40.81 27.0173L41.3514 26.9623L41.4635 27.0796L40.7882 27.1462L40.679 27.8512L40.5684 27.7281Z" fill="white"/>
<path d="M41.336 28.5316L41.4306 27.9641L40.8484 28.0249L40.7334 27.9033L41.4437 27.8309L41.5485 27.165L41.6635 27.2866L41.5776 27.8208L42.119 27.7643L42.2311 27.8831L41.5557 27.9496L41.448 28.6546L41.336 28.5316Z" fill="white"/>
<path d="M43.9922 31.3299L44.0868 30.7624L43.5046 30.8232L43.3896 30.7016L44.0999 30.6307L44.2047 29.9633L44.3197 30.0849L44.2338 30.6191L44.7753 30.5626L44.8873 30.6814L44.212 30.7479L44.1028 31.4529L43.9922 31.3299Z" fill="white"/>
<path d="M44.7598 32.1391L44.8544 31.5702L44.2722 31.631L44.1572 31.5109L44.8675 31.4385L44.9723 30.7726L45.0873 30.8942L45.0014 31.4283L45.5428 31.3719L45.6549 31.4906L44.9796 31.5572L44.8704 32.2622L44.7598 32.1391Z" fill="white"/>
<path d="M45.5288 32.9484L45.6249 32.3794L45.0427 32.4402L44.9277 32.3186L45.638 32.2477L45.7428 31.5818L45.8578 31.7019L45.7719 32.2361L46.3134 32.1811L46.4254 32.2984L45.7501 32.365L45.6424 33.07L45.5288 32.9484Z" fill="white"/>
<path d="M46.2989 33.7561L46.3935 33.1887L45.8113 33.2495L45.6963 33.1279L46.4066 33.0569L46.5114 32.3896L46.6278 32.5112L46.5405 33.0453L47.0819 32.9889L47.194 33.1076L46.5186 33.1742L46.4109 33.8792L46.2989 33.7561Z" fill="white"/>
<path d="M49.7483 35.2617L48.6829 36.2649L48.5781 36.1549L49.5475 35.2443L49.3102 34.9953L49.4077 34.9027L49.7483 35.2617Z" fill="white"/>
<path d="M49.895 36.9279C49.7175 37.0959 49.4584 37.0959 49.2139 36.8396C49.0762 36.7039 48.9956 36.5212 48.9883 36.3286L49.1251 36.2997C49.1278 36.467 49.1956 36.6269 49.3143 36.7455C49.4817 36.9207 49.6563 36.941 49.7888 36.8165C49.9212 36.692 49.9154 36.5269 49.7277 36.3301L49.6564 36.2548L49.7364 36.1795L50.3855 36.1245L49.8703 35.5831L49.9678 35.4904L50.6155 36.1723L50.5384 36.2461L49.8747 36.3026C50.0784 36.5443 50.0682 36.7702 49.895 36.9279Z" fill="white"/>
<path d="M50.8718 38.0093L50.6695 37.7965L50.39 38.06L50.2853 37.9514L50.5662 37.688L49.9971 37.0901L50.0771 37.0148L51.3172 36.9135L51.4322 37.0336L50.2285 37.1393L50.6651 37.5997L50.9111 37.368L51.013 37.4737L50.7656 37.7053L50.9679 37.9181L50.8718 38.0093Z" fill="white"/>
<path d="M51.466 38.9995L51.3685 39.0907L50.6611 38.3466L50.7397 38.2743L51.5926 38.3061C51.8255 38.3148 51.9187 38.2699 51.9914 38.2019C52.1152 38.0846 52.1093 37.9268 51.9551 37.7676C51.9069 37.7105 51.8464 37.665 51.7781 37.6344C51.7098 37.6039 51.6355 37.589 51.5606 37.591V37.4462C51.6574 37.4451 51.7533 37.4654 51.8413 37.5054C51.9294 37.5454 52.0075 37.6043 52.07 37.6778C52.2738 37.8935 52.2942 38.1324 52.1152 38.3003C52.0133 38.3959 51.8925 38.4451 51.6174 38.4451L50.9173 38.4205L51.466 38.9995Z" fill="white"/>
<path d="M30.8046 21.8724C30.8626 21.8244 30.9335 21.7943 31.0085 21.786C31.0834 21.7776 31.1592 21.7913 31.2265 21.8254C31.2937 21.8594 31.3494 21.9123 31.3867 21.9776C31.424 22.0428 31.4413 22.1175 31.4363 22.1923L31.2908 22.1837C31.295 22.1504 31.2918 22.1167 31.2812 22.0848C31.2706 22.053 31.253 22.024 31.2296 21.9998C31.2094 21.9785 31.1851 21.9614 31.1582 21.9494C31.1313 21.9375 31.1023 21.9309 31.0728 21.9301C31.0133 21.9285 30.9556 21.9504 30.9123 21.9911C30.8691 22.0318 30.8439 22.0879 30.8423 22.1471C30.8406 22.2063 30.8627 22.2637 30.9036 22.3067C30.9266 22.3313 30.9549 22.3504 30.9865 22.3624C31.018 22.3745 31.0519 22.3792 31.0855 22.3762V22.521C31.0307 22.5234 30.9761 22.5134 30.9257 22.4919C30.8753 22.4703 30.8304 22.4377 30.7945 22.3965C30.7589 22.3623 30.7307 22.3212 30.7118 22.2757C30.6929 22.2303 30.6837 22.1814 30.6846 22.1322C30.6856 22.083 30.6967 22.0346 30.7174 21.9899C30.738 21.9452 30.7677 21.9052 30.8046 21.8724Z" fill="white"/>
<path d="M31.5018 22.8858L31.2776 22.6513L31.1321 22.7092L31.0186 22.589L31.7463 22.3357L31.8555 22.4515L31.5644 23.1565L31.4377 23.0305L31.5018 22.8858ZM31.5556 22.7656L31.6735 22.5021L31.4028 22.6049L31.5556 22.7656Z" fill="white"/>
<path d="M31.9096 23.5343L31.9577 23.3027L31.8602 23.2014L31.7146 23.3345L31.6025 23.2173L32.112 22.7396L32.3201 22.9581C32.4482 23.0928 32.4584 23.2477 32.3434 23.3505C32.3107 23.3844 32.2681 23.4073 32.2216 23.4159C32.1751 23.4244 32.1271 23.4183 32.0843 23.3982L32.029 23.6646L31.9096 23.5343ZM32.2182 23.0363L32.1265 22.9408L31.9489 23.1073L32.0406 23.2028C32.1076 23.2737 32.176 23.2781 32.2313 23.2274C32.2866 23.1767 32.2852 23.1073 32.2182 23.0305V23.0363Z" fill="white"/>
<path d="M32.1211 23.6559L32.2477 23.6125C32.26 23.694 32.297 23.7698 32.354 23.8296C32.4195 23.8991 32.469 23.9049 32.4995 23.876C32.5941 23.7862 32.2492 23.5546 32.4384 23.3765C32.5257 23.2955 32.6625 23.2969 32.7993 23.4402C32.8596 23.5005 32.9019 23.5761 32.9216 23.6588L32.7979 23.7066C32.7828 23.6402 32.7507 23.5789 32.7047 23.5285C32.6378 23.459 32.5868 23.4576 32.5592 23.4865C32.466 23.5748 32.8095 23.8094 32.6232 23.9845C32.5374 24.0642 32.3991 24.0627 32.2608 23.9179C32.1889 23.8465 32.1403 23.7552 32.1211 23.6559Z" fill="white"/>
<path d="M33.6926 24.3957L33.1832 24.8748L33.0726 24.7576L33.2807 24.5607L33.0624 24.3305L32.8543 24.5274L32.7422 24.4101L33.2516 23.9324L33.3622 24.0482L33.1614 24.2379L33.3797 24.468L33.5805 24.2784L33.6926 24.3957Z" fill="white"/>
<path d="M33.5221 24.7243C33.5748 24.6685 33.6432 24.6299 33.7184 24.6132C33.7935 24.5966 33.8719 24.6028 33.9435 24.6311C34.015 24.6593 34.0764 24.7083 34.1197 24.7716C34.1629 24.8349 34.186 24.9097 34.186 24.9863C34.186 25.0629 34.1629 25.1377 34.1197 25.201C34.0764 25.2643 34.015 25.3133 33.9435 25.3415C33.8719 25.3698 33.7935 25.376 33.7184 25.3594C33.6432 25.3427 33.5748 25.3041 33.5221 25.2483C33.4864 25.2145 33.458 25.1739 33.4386 25.1288C33.4192 25.0838 33.4092 25.0353 33.4092 24.9863C33.4092 24.9373 33.4192 24.8888 33.4386 24.8438C33.458 24.7987 33.4864 24.7581 33.5221 24.7243ZM33.9354 25.1586C33.9579 25.1397 33.9763 25.1164 33.9892 25.0901C34.0022 25.0638 34.0095 25.0351 34.0108 25.0058C34.012 24.9765 34.0071 24.9473 33.9964 24.9201C33.9857 24.8928 33.9694 24.868 33.9485 24.8473C33.9187 24.8143 33.8798 24.7909 33.8366 24.7801C33.7934 24.7693 33.7479 24.7715 33.7059 24.7865C33.664 24.8015 33.6275 24.8285 33.6011 24.8642C33.5747 24.8999 33.5597 24.9427 33.5578 24.987C33.5559 25.0312 33.5674 25.0751 33.5907 25.1128C33.614 25.1506 33.6481 25.1806 33.6886 25.199C33.7291 25.2175 33.7742 25.2235 33.8182 25.2162C33.8622 25.209 33.903 25.189 33.9354 25.1586Z" fill="white"/>
<path d="M34.3883 25.1282L34.4989 25.2454L34.0856 25.6363L34.3272 25.8896L34.2311 25.9794L33.8789 25.6088L34.3883 25.1282Z" fill="white"/>
<path d="M34.8039 25.5654L35.0222 25.7955C35.0584 25.8277 35.0874 25.867 35.1075 25.9109C35.1277 25.9549 35.1384 26.0025 35.1391 26.0507C35.1398 26.099 35.1303 26.1469 35.1115 26.1914C35.0926 26.2358 35.0646 26.2759 35.0293 26.3091C34.9941 26.3423 34.9523 26.3678 34.9066 26.3841C34.8609 26.4003 34.8123 26.407 34.7639 26.4036C34.7155 26.4003 34.6683 26.3869 34.6253 26.3645C34.5823 26.3421 34.5445 26.311 34.5142 26.2733L34.2959 26.0431L34.8039 25.5654ZM34.6045 26.1763C34.6216 26.2032 34.6444 26.226 34.6713 26.2431C34.6983 26.2603 34.7287 26.2713 34.7604 26.2755C34.7922 26.2797 34.8244 26.2768 34.8549 26.2672C34.8854 26.2576 34.9134 26.2415 34.9369 26.2199C34.9605 26.1983 34.9789 26.1719 34.9911 26.1424C35.0032 26.113 35.0086 26.0812 35.007 26.0494C35.0055 26.0177 34.9969 25.9866 34.9819 25.9585C34.9669 25.9304 34.9459 25.9059 34.9203 25.8867L34.8184 25.7796L34.504 26.0706L34.6045 26.1763Z" fill="white"/>
<path d="M35.3305 26.9392L35.2359 27.0289L34.8633 26.6366L35.3727 26.1589L35.7351 26.5411L35.642 26.6294L35.3887 26.3645L35.2781 26.4672L35.5008 26.7032L35.4091 26.7886L35.1864 26.5541L35.0685 26.6641L35.3305 26.9392Z" fill="white"/>
<path d="M35.6323 27.4488L35.6803 27.2186L35.5828 27.1172L35.4373 27.2504L35.3252 27.1332L35.8346 26.654L36.0427 26.874C36.1708 27.0087 36.181 27.1636 36.066 27.2663C36.0333 27.3003 35.9907 27.3232 35.9442 27.3318C35.8977 27.3403 35.8497 27.3342 35.807 27.3141L35.7516 27.5805L35.6323 27.4488ZM35.9409 26.9508L35.8492 26.8552L35.6731 27.0231L35.7633 27.1187C35.8317 27.1896 35.8987 27.194 35.954 27.1418C36.0093 27.0897 36.0078 27.0231 35.9409 26.9508Z" fill="white"/>
<path d="M28.7694 23.6849L29.0401 23.6675C29.027 23.7162 29.026 23.7673 29.0371 23.8165C29.0483 23.8657 29.0713 23.9114 29.1042 23.9498C29.19 24.0395 29.2905 24.0367 29.3953 23.9353L29.861 23.501L29.535 23.1579L29.7169 22.9871L30.2569 23.5546L29.6209 24.151C29.3778 24.3797 29.1449 24.3696 28.9266 24.1409C28.8667 24.0822 28.8213 24.0104 28.794 23.9313C28.7667 23.8522 28.7583 23.7678 28.7694 23.6849Z" fill="white"/>
<path d="M29.5466 24.497C29.5825 24.4632 29.6304 24.445 29.6798 24.4464C29.7292 24.4477 29.776 24.4685 29.81 24.5042C29.844 24.5399 29.8623 24.5876 29.8609 24.6367C29.8595 24.6859 29.8386 24.7325 29.8027 24.7663C29.7849 24.783 29.764 24.7961 29.7412 24.8048C29.7183 24.8135 29.694 24.8176 29.6695 24.8169C29.645 24.8162 29.6209 24.8108 29.5986 24.8008C29.5763 24.7909 29.5561 24.7767 29.5393 24.759C29.5225 24.7413 29.5093 24.7205 29.5006 24.6978C29.4918 24.6751 29.4877 24.6508 29.4884 24.6265C29.489 24.6022 29.4945 24.5782 29.5045 24.556C29.5145 24.5338 29.5288 24.5137 29.5466 24.497Z" fill="white"/>
<path d="M32.1575 25.5465L30.8738 26.1488L30.6438 25.907L31.1038 25.0688L30.2305 25.4713L30.002 25.231L30.6773 23.9889L30.9 24.2219L30.4197 25.0905L31.3279 24.6722L31.5258 24.8806L31.0426 25.7565L31.9538 25.3308L32.1575 25.5465Z" fill="white"/>
<path d="M32.2497 25.6435C32.2669 25.6276 32.2873 25.6154 32.3095 25.6077C32.3317 25.6 32.3552 25.597 32.3787 25.599C32.4021 25.6009 32.4249 25.6076 32.4455 25.6188C32.4662 25.6299 32.4842 25.6453 32.4986 25.6638C32.5163 25.6786 32.5308 25.6968 32.5411 25.7175C32.5514 25.7381 32.5573 25.7606 32.5584 25.7836C32.5595 25.8066 32.5557 25.8295 32.5475 25.851C32.5392 25.8725 32.5265 25.8921 32.5102 25.9085C32.493 25.9252 32.4725 25.9382 32.45 25.9465C32.4274 25.9548 32.4033 25.9584 32.3793 25.9569C32.3553 25.9554 32.3319 25.9489 32.3106 25.9378C32.2892 25.9267 32.2705 25.9113 32.2555 25.8925C32.2379 25.8771 32.2236 25.8581 32.2137 25.8369C32.2037 25.8157 32.1983 25.7927 32.1978 25.7693C32.1972 25.7459 32.2016 25.7227 32.2105 25.701C32.2194 25.6794 32.2328 25.6598 32.2497 25.6435ZM32.0474 25.8824L32.2541 26.0995L31.5001 26.8074L31.2949 26.5903L32.0474 25.8824Z" fill="white"/>
<path d="M32.7306 26.033L32.9373 26.2501L31.8981 27.2287L31.6914 27.0116L32.7306 26.033Z" fill="white"/>
<path d="M33.1281 26.4513L33.3348 26.6685L32.2955 27.6456L32.0889 27.4285L33.1281 26.4513Z" fill="white"/>
<path d="M33.4431 26.8986C33.4606 26.8831 33.4811 26.8712 33.5034 26.8637C33.5256 26.8563 33.5492 26.8534 33.5726 26.8553C33.596 26.8572 33.6188 26.8638 33.6396 26.8748C33.6604 26.8857 33.6787 26.9007 33.6934 26.9189C33.7109 26.934 33.7251 26.9526 33.7352 26.9733C33.7452 26.9941 33.7509 27.0167 33.7518 27.0398C33.7528 27.0628 33.749 27.0858 33.7407 27.1073C33.7324 27.1289 33.7198 27.1485 33.7036 27.165C33.6672 27.1938 33.6213 27.2081 33.5748 27.2052C33.5284 27.2022 33.4847 27.1822 33.4522 27.149C33.4198 27.1158 33.4009 27.0718 33.3992 27.0256C33.3975 26.9793 33.4131 26.9341 33.4431 26.8986ZM33.2408 27.139L33.4474 27.3561L32.695 28.064L32.4883 27.8469L33.2408 27.139Z" fill="white"/>
<path d="M33.9446 28.5316L33.508 28.9355L33.3144 28.7328L33.409 28.6445C33.3486 28.6535 33.2868 28.6461 33.2302 28.6232C33.1736 28.6003 33.1243 28.5626 33.0874 28.5142C32.92 28.3391 32.9185 28.1422 33.0495 28.0206C33.1805 27.899 33.3624 27.9019 33.5793 28.1291L33.7438 28.3029C33.8384 28.2146 33.8398 28.1074 33.7278 27.9902C33.654 27.9138 33.5576 27.8631 33.4527 27.8454L33.5313 27.6254C33.6848 27.6629 33.8236 27.745 33.9301 27.8613C34.1542 28.077 34.1731 28.3101 33.9446 28.5316ZM33.5473 28.4954L33.6244 28.423L33.4789 28.2783C33.3828 28.1755 33.3144 28.1798 33.2635 28.2261C33.2125 28.2725 33.2169 28.3579 33.2897 28.4346C33.3213 28.4696 33.3633 28.4937 33.4097 28.5033C33.456 28.5129 33.5042 28.5076 33.5473 28.4882V28.4954Z" fill="white"/>
<path d="M35.3362 29.9792L34.8995 30.3846L34.6943 30.1674L35.0917 29.7939C35.2125 29.6796 35.2168 29.5724 35.1339 29.4856C35.0509 29.3987 34.9141 29.3785 34.7787 29.5044L34.4018 29.8605L34.1951 29.6434L34.5924 29.2699C34.7147 29.1541 34.7205 29.0498 34.6347 28.9601C34.5488 28.8703 34.4163 28.8544 34.281 28.9818L33.9127 29.3408L33.7061 29.1237L34.4585 28.4158L34.6565 28.6228L34.5692 28.7053C34.6302 28.7045 34.6906 28.7171 34.7462 28.7421C34.8018 28.7671 34.8511 28.804 34.8908 28.8501C34.9392 28.896 34.9749 28.9536 34.9943 29.0173C35.0137 29.0809 35.0161 29.1485 35.0014 29.2134C35.0726 29.2084 35.1439 29.2196 35.21 29.2462C35.2761 29.2728 35.3352 29.3141 35.3828 29.3669C35.5472 29.5449 35.5647 29.7679 35.3362 29.9792Z" fill="white"/>
<path d="M35.0898 30.4454L35.3154 30.3701C35.3425 30.4934 35.4029 30.607 35.4901 30.6987C35.5847 30.7986 35.6473 30.8116 35.6895 30.7725C35.8118 30.6567 35.2529 30.3223 35.5571 30.0386C35.7026 29.9054 35.9224 29.9387 36.1305 30.1573C36.2273 30.2557 36.2987 30.3759 36.3386 30.5076L36.1145 30.5815C36.0911 30.4804 36.0408 30.3874 35.969 30.3122C35.8773 30.2152 35.8059 30.2022 35.7666 30.2384C35.6386 30.36 36.1931 30.6958 35.8962 30.9738C35.7506 31.1055 35.5338 31.0708 35.314 30.8464C35.2048 30.7349 35.1274 30.5965 35.0898 30.4454Z" fill="white"/>
<path d="M43.787 38.8171C44.1101 38.5131 44.4623 38.5189 44.6908 38.7578C44.9194 38.9966 44.9048 39.3484 44.5802 39.6524C44.2557 39.9564 43.9063 39.9521 43.6764 39.7118C43.4464 39.4715 43.4639 39.1211 43.787 38.8171ZM44.3692 39.4251C44.5919 39.2167 44.6108 39.0516 44.5031 38.9387C44.3954 38.8258 44.2309 38.8359 44.0082 39.0459C43.7855 39.2558 43.7666 39.4193 43.8729 39.5308C43.9791 39.6423 44.1421 39.635 44.3648 39.4251H44.3692Z" fill="white"/>
<path d="M45.2654 40.7367C45.066 40.9249 44.7851 40.8815 44.5886 40.6744C44.3339 40.4052 44.344 40.078 44.6599 39.7812C44.999 39.4628 45.3876 39.4917 45.6598 39.7812C45.7533 39.8738 45.8197 39.9899 45.8519 40.1171L45.6059 40.1895C45.5877 40.1027 45.5442 40.0231 45.4808 39.9608C45.4477 39.9212 45.4064 39.8892 45.3597 39.8671C45.313 39.8449 45.262 39.8331 45.2103 39.8324C45.1585 39.8317 45.1073 39.8422 45.06 39.8631C45.0127 39.884 44.9706 39.9148 44.9364 39.9535C45.0587 39.9632 45.1722 40.0204 45.2523 40.1128C45.2952 40.1524 45.3296 40.2002 45.3536 40.2533C45.3775 40.3064 45.3905 40.3638 45.3917 40.422C45.393 40.4802 45.3824 40.538 45.3607 40.5921C45.339 40.6462 45.3066 40.6953 45.2654 40.7367ZM45.047 40.5282C45.068 40.5084 45.0845 40.4844 45.0954 40.4577C45.1063 40.431 45.1114 40.4024 45.1103 40.3736C45.1092 40.3449 45.1019 40.3167 45.089 40.2909C45.0761 40.2651 45.0578 40.2424 45.0354 40.2242C45.0178 40.2013 44.9957 40.1823 44.9705 40.1682C44.9452 40.1542 44.9173 40.1455 44.8885 40.1426C44.8597 40.1398 44.8306 40.1429 44.803 40.1517C44.7755 40.1605 44.75 40.1748 44.7283 40.1938C44.7076 40.2144 44.6914 40.2392 44.681 40.2664C44.6705 40.2937 44.666 40.3228 44.6676 40.3519C44.6693 40.381 44.6771 40.4094 44.6906 40.4353C44.704 40.4612 44.7228 40.484 44.7458 40.5022C44.763 40.5252 44.7849 40.5444 44.8101 40.5584C44.8353 40.5724 44.8632 40.5809 44.892 40.5834C44.9207 40.5859 44.9497 40.5822 44.9769 40.5727C45.0042 40.5632 45.029 40.548 45.05 40.5282H45.047Z" fill="white"/>
<path d="M46.5756 40.3733L46.7605 40.5659L45.0037 41.3476L44.8203 41.1536L46.5756 40.3733Z" fill="white"/>
<path d="M46.4445 42.222L46.2596 42.3957L45.5566 41.6589L45.7022 41.5213L46.4168 41.5619C46.4654 41.5713 46.5154 41.5701 46.5634 41.5583C46.6114 41.5466 46.6562 41.5246 46.6948 41.4938C46.772 41.4214 46.7661 41.3259 46.6672 41.2231C46.6316 41.1822 46.5864 41.1507 46.5356 41.1315C46.4848 41.1123 46.43 41.106 46.3761 41.1131L46.3266 40.8482C46.4291 40.8364 46.5329 40.8499 46.6288 40.8875C46.7248 40.9251 46.81 40.9857 46.8768 41.0639C47.0834 41.2825 47.1082 41.5315 46.9306 41.6994C46.836 41.7891 46.7239 41.8442 46.4663 41.8268L46.0413 41.8022L46.4445 42.222Z" fill="white"/>
<path d="M47.389 43.1731L47.2435 43.0153L47.0383 43.2078L46.8287 42.9878L47.0354 42.7953L46.5361 42.2698L46.689 42.125L47.7471 42.0005L47.9727 42.2365L46.9771 42.3639L47.226 42.6259L47.4094 42.4536L47.6117 42.6664L47.4283 42.8387L47.5739 42.9979L47.389 43.1731Z" fill="white"/>
<path d="M51.9871 31.1156C52.5402 30.2702 52.3233 29.1468 51.581 28.4607C51.3552 28.2488 51.0936 28.0783 50.8081 27.9569C50.0993 27.6673 49.1605 27.8773 48.7879 28.5461C48.4837 29.0918 48.606 29.7737 48.82 30.36C49.0427 30.9752 49.4022 31.6035 50.0149 31.8424C50.6277 32.0812 51.3132 31.8626 51.7528 31.4081C51.8407 31.3188 51.9193 31.2208 51.9871 31.1156Z" fill="#13829F"/>
<path d="M65.4859 31.4645H28.2649C26.863 31.4645 25.7266 32.5949 25.7266 33.9892V59.4722C25.7266 60.8665 26.863 61.9969 28.2649 61.9969H65.4859C66.8878 61.9969 68.0243 60.8665 68.0243 59.4722V33.9892C68.0243 32.5949 66.8878 31.4645 65.4859 31.4645Z" fill="#E2B659"/>
<path d="M68.0243 33.9892C68.0243 33.9892 68.0243 33.9588 68.0243 33.898C68.0216 33.8073 68.0129 33.7169 67.9981 33.6273C67.947 33.2749 67.8199 32.9376 67.6255 32.6386C67.483 32.4186 67.3084 32.221 67.1073 32.0523C66.8617 31.8521 66.5809 31.6989 66.2792 31.6006C66.1977 31.5731 66.1118 31.5572 66.0259 31.5326C65.94 31.508 65.8484 31.5051 65.7567 31.4906L65.4757 31.4776H63.9067L48.7305 31.4891H38.251H32.4116H28.5823C28.3238 31.4788 28.065 31.4934 27.8094 31.5326C27.2947 31.6265 26.823 31.8799 26.4616 32.2564C26.2791 32.4439 26.1283 32.6595 26.0148 32.8948C25.8978 33.13 25.8211 33.3829 25.7877 33.6432C25.7626 33.9079 25.7543 34.1738 25.763 34.4394V38.5204C25.763 40.7266 25.763 42.9767 25.763 45.2707V59.4577C25.7639 60.0632 25.9852 60.6479 26.3859 61.1036C26.7812 61.5568 27.3294 61.8508 27.9273 61.9303C28.2254 61.9559 28.5248 61.9641 28.8239 61.9549H51.8437H63.8733H65.2734C65.5019 61.9618 65.7305 61.9468 65.9561 61.91C66.1778 61.8675 66.3927 61.7955 66.595 61.6957C66.6953 61.6467 66.7926 61.5916 66.8861 61.5307C66.9772 61.467 67.0646 61.3984 67.1481 61.3251C67.3959 61.1083 67.5978 60.8446 67.742 60.5493C67.8862 60.254 67.9698 59.9331 67.9879 59.6053C68.0025 57.8682 67.9879 56.1976 67.9966 54.6052C67.9966 48.2355 68.0068 43.0761 68.0097 39.512C68.0097 37.7299 68.0097 36.3474 68.017 35.4079C68.017 34.9403 68.017 34.5828 68.017 34.341C68.017 34.0992 68.017 33.9776 68.017 33.9776C68.017 33.9776 68.017 34.1007 68.017 34.341C68.017 34.5813 68.017 34.9403 68.017 35.4079C68.017 36.3474 68.017 37.7242 68.0243 39.512C68.0243 43.0761 68.0243 48.2326 68.0359 54.6052C68.0359 56.1976 68.0461 57.8667 68.0359 59.6082C68.0114 60.0546 67.8688 60.4865 67.6226 60.8604C67.4998 61.0484 67.353 61.2196 67.1859 61.37C67.1004 61.4452 67.0105 61.5153 66.9167 61.5799C66.8231 61.642 66.7259 61.6986 66.6256 61.7493C66.419 61.8522 66.199 61.9263 65.9721 61.9693C65.7428 62.0079 65.5102 62.0234 65.2778 62.0157H63.8776H51.8481H38.5537H28.818C28.5155 62.025 28.2127 62.0163 27.9113 61.9896C27.2952 61.9092 26.7303 61.6068 26.3234 61.1398C25.9125 60.6717 25.6851 60.0719 25.6829 59.4504C25.6829 54.5878 25.6829 49.8424 25.6829 45.2635V38.5204C25.6829 37.4182 25.6829 36.3277 25.6829 35.2487V34.4423C25.6742 34.1733 25.683 33.9039 25.7091 33.636C25.7436 33.3685 25.8228 33.1087 25.9435 32.8673C26.0598 32.6248 26.2151 32.4028 26.4034 32.2101C26.5898 32.0194 26.8037 31.8574 27.038 31.7294C27.2735 31.6051 27.5268 31.5172 27.789 31.4689L27.9855 31.4385L28.182 31.4283C28.3144 31.4211 28.444 31.4283 28.5735 31.4283H38.2423H48.7217L63.898 31.4414H65.4597L65.7436 31.4558C65.8353 31.4718 65.9269 31.4819 66.0143 31.5007C66.1016 31.5195 66.1875 31.5413 66.269 31.5702C66.5732 31.6698 66.856 31.8249 67.103 32.0277C67.3051 32.198 67.4802 32.3976 67.6226 32.6197C67.8162 32.9213 67.9413 33.2612 67.9894 33.6157C68.0042 33.7057 68.012 33.7967 68.0126 33.8879C68.0243 33.9588 68.0243 33.9892 68.0243 33.9892Z" fill="#263238"/>
<path d="M66.543 33.3465C66.8319 33.2963 67.1273 33.2963 67.4163 33.3465C67.1273 33.3966 66.8319 33.3966 66.543 33.3465Z" fill="#263238"/>
<path d="M62.9795 33.3465C63.5723 33.2963 64.1682 33.2963 64.761 33.3465C64.1682 33.3967 63.5723 33.3967 62.9795 33.3465Z" fill="#263238"/>
<path d="M59.4189 33.3465C60.0112 33.2962 60.6067 33.2962 61.199 33.3465C60.6067 33.3967 60.0112 33.3967 59.4189 33.3465Z" fill="#263238"/>
<path d="M55.8555 33.3465C56.4482 33.2963 57.0442 33.2963 57.637 33.3465C57.0442 33.3967 56.4482 33.3967 55.8555 33.3465Z" fill="#263238"/>
<path d="M52.2939 33.3465C52.8862 33.2962 53.4817 33.2962 54.074 33.3465C53.4817 33.3967 52.8862 33.3967 52.2939 33.3465Z" fill="#263238"/>
<path d="M48.7305 33.3465C49.3232 33.2963 49.9192 33.2963 50.512 33.3465C49.9192 33.3967 49.3232 33.3967 48.7305 33.3465Z" fill="#263238"/>
<path d="M45.1689 33.3465C45.7612 33.2963 46.3567 33.2963 46.949 33.3465C46.3567 33.3967 45.7612 33.3967 45.1689 33.3465Z" fill="#263238"/>
<path d="M41.6055 33.3465C42.1982 33.2963 42.7942 33.2963 43.387 33.3465C42.7942 33.3966 42.1982 33.3966 41.6055 33.3465Z" fill="#263238"/>
<path d="M38.043 33.3465C38.6357 33.2963 39.2317 33.2963 39.8245 33.3465C39.2317 33.3967 38.6357 33.3967 38.043 33.3465Z" fill="#263238"/>
<path d="M34.4814 33.3465C34.7753 33.3095 35.0718 33.2969 35.3678 33.3088C35.6653 33.2967 35.9632 33.3093 36.2586 33.3465C35.9633 33.3846 35.6653 33.3971 35.3678 33.3841C35.0718 33.3969 34.7753 33.3843 34.4814 33.3465Z" fill="#263238"/>
<path d="M30.9189 33.3465C31.2143 33.3093 31.5122 33.2967 31.8097 33.3088C32.1072 33.2967 32.4051 33.3093 32.7005 33.3465C32.4052 33.3846 32.1072 33.3971 31.8097 33.3841C31.5122 33.3971 31.2142 33.3846 30.9189 33.3465Z" fill="#263238"/>
<path d="M28.2655 34.2151C28.2272 33.9272 28.2145 33.6365 28.2277 33.3465L28.2655 33.3088H28.6047L28.8827 33.3175C28.9688 33.3144 29.0551 33.3232 29.1388 33.3436C29.0552 33.365 28.9689 33.3743 28.8827 33.3711L28.6047 33.3783H28.4417H28.2655L28.3034 33.3407C28.316 33.6327 28.3033 33.9252 28.2655 34.2151Z" fill="#263238"/>
<path d="M28.2655 37.4621C28.2272 37.1932 28.2145 36.9213 28.2277 36.65C28.2146 36.3792 28.2273 36.1078 28.2655 35.8393C28.3029 36.1078 28.3155 36.3792 28.3033 36.65C28.3156 36.9213 28.3029 37.1931 28.2655 37.4621Z" fill="#263238"/>
<path d="M28.2654 40.7092C28.2149 40.1694 28.2149 39.6262 28.2654 39.0864C28.3158 39.6262 28.3158 40.1694 28.2654 40.7092Z" fill="#263238"/>
<path d="M28.2654 43.9563C28.2149 43.416 28.2149 42.8723 28.2654 42.332C28.3158 42.8723 28.3158 43.416 28.2654 43.9563Z" fill="#263238"/>
<path d="M28.2654 47.2062C28.2149 46.666 28.2149 46.1222 28.2654 45.582C28.3158 46.1222 28.3158 46.666 28.2654 47.2062Z" fill="#263238"/>
<path d="M28.2654 50.449C28.2149 49.9092 28.2149 49.3659 28.2654 48.8261C28.3158 49.3659 28.3158 49.9092 28.2654 50.449Z" fill="#263238"/>
<path d="M28.2654 53.696C28.2149 53.1563 28.2149 52.613 28.2654 52.0732C28.3158 52.613 28.3158 53.1563 28.2654 53.696Z" fill="#263238"/>
<path d="M28.2654 56.9431C28.2149 56.4033 28.2149 55.8601 28.2654 55.3203C28.3158 55.8601 28.3158 56.4033 28.2654 56.9431Z" fill="#263238"/>
<path d="M29.1386 59.436C28.8491 59.4731 28.5569 59.4857 28.2653 59.4736C28.1896 59.3983 28.2435 59.4519 28.2274 59.4345V59.2622C28.2274 59.2058 28.2274 59.1522 28.2274 59.0987C28.2274 59.0031 28.2274 58.9119 28.2274 58.8222C28.2233 58.7368 28.2326 58.6513 28.2551 58.5688C28.2757 58.6516 28.2845 58.7369 28.2813 58.8222C28.2813 58.9119 28.2813 59.0031 28.29 59.0987C28.29 59.1522 28.29 59.2058 28.29 59.2622C28.29 59.2897 28.29 59.3187 28.29 59.3477V59.4345C28.2726 59.4186 28.3279 59.4736 28.2522 59.3983C28.5482 59.3845 28.8448 59.3971 29.1386 59.436Z" fill="#263238"/>
<path d="M32.6489 59.436C32.3594 59.4729 32.0673 59.4855 31.7756 59.4736C31.484 59.4855 31.1919 59.4729 30.9023 59.436C31.1918 59.3981 31.484 59.3855 31.7756 59.3983C32.0673 59.3855 32.3595 59.3981 32.6489 59.436Z" fill="#263238"/>
<path d="M36.1597 59.436C35.8701 59.4729 35.578 59.4855 35.2864 59.4736C34.9947 59.4855 34.7026 59.4729 34.4131 59.436C34.7025 59.3981 34.9947 59.3855 35.2864 59.3983C35.578 59.3855 35.8702 59.3981 36.1597 59.436Z" fill="#263238"/>
<path d="M39.6703 59.436C39.0863 59.4862 38.4991 59.4862 37.915 59.436C38.4991 59.3858 39.0863 59.3858 39.6703 59.436Z" fill="#263238"/>
<path d="M43.1811 59.436C42.5971 59.4862 42.0098 59.4862 41.4258 59.436C42.0098 59.3858 42.5971 59.3858 43.1811 59.436Z" fill="#263238"/>
<path d="M46.6918 59.436C46.1078 59.4862 45.5205 59.4862 44.9365 59.436C45.5205 59.3858 46.1078 59.3858 46.6918 59.436Z" fill="#263238"/>
<path d="M50.2026 59.436C49.6186 59.4862 49.0313 59.4862 48.4473 59.436C49.0313 59.3858 49.6186 59.3858 50.2026 59.436Z" fill="#263238"/>
<path d="M53.7075 59.436C53.1234 59.4862 52.5362 59.4862 51.9521 59.436C52.5362 59.3858 53.1234 59.3858 53.7075 59.436Z" fill="#263238"/>
<path d="M57.2231 59.436C56.6391 59.4862 56.0518 59.4862 55.4678 59.436C56.0518 59.3858 56.6391 59.3858 57.2231 59.436Z" fill="#263238"/>
<path d="M60.7338 59.436C60.1498 59.4862 59.5625 59.4862 58.9785 59.436C59.5625 59.3858 60.1498 59.3858 60.7338 59.436Z" fill="#263238"/>
<path d="M64.2455 59.436C63.6615 59.4862 63.0742 59.4862 62.4902 59.436C63.0742 59.3858 63.6615 59.3858 64.2455 59.436Z" fill="#263238"/>
<path d="M66.8743 59.436C66.5854 59.4861 66.2899 59.4861 66.001 59.436C66.2899 59.3858 66.5854 59.3858 66.8743 59.436Z" fill="#263238"/>
<g opacity="0.3">
<path d="M40.3172 48.3991C40.3172 48.3991 40.3259 49.8467 39.8805 50.7153C39.4352 51.5839 39.2984 51.9285 38.3668 52.2643C37.4353 52.6002 25.7158 53.8813 25.7158 53.8813V49.9481L40.3172 48.3991Z" fill="black"/>
</g>
<g opacity="0.3">
<path d="M40.1111 42.9415C40.1111 42.9415 40.245 41.4634 36.5175 40.9148C32.2544 40.2879 25.7266 39.5178 25.7266 39.5178V42.3132L40.1111 42.9415Z" fill="black"/>
</g>
<path d="M38.2396 41.601H26.114C24.9637 41.601 24.0312 42.5284 24.0312 43.6725V49.0723C24.0312 50.2164 24.9637 51.1438 26.114 51.1438H38.2396C39.3899 51.1438 40.3224 50.2164 40.3224 49.0723V43.6725C40.3224 42.5284 39.3899 41.601 38.2396 41.601Z" fill="#E2B659"/>
<path d="M26.114 51.1424C26.114 51.1424 26.0718 51.1424 25.9903 51.1424C25.8681 51.1377 25.7467 51.1212 25.6278 51.0932C25.4333 51.0495 25.2464 50.9773 25.0733 50.8789C24.8362 50.7457 24.6279 50.5671 24.4605 50.3534C24.2485 50.0855 24.1061 49.7698 24.0457 49.4342C24.0154 49.2427 24.0037 49.0488 24.0108 48.8551C24.0108 48.6553 24.0108 48.4469 24.0108 48.2312C24.0108 47.3698 24.0108 46.3898 24.0108 45.3055C24.0108 44.7626 24.0108 44.1966 24.0108 43.603C24.0206 43.2902 24.1007 42.9834 24.2453 42.7053C24.3898 42.4273 24.5952 42.185 24.8462 41.9962C25.1101 41.7944 25.4193 41.6593 25.7472 41.6024C25.9136 41.5749 26.0822 41.5633 26.2508 41.5677H28.8706H38.2498C38.5657 41.567 38.8778 41.6369 39.1629 41.7722C39.4481 41.9075 39.6991 42.1047 39.8974 42.3494C40.1599 42.6695 40.321 43.06 40.3602 43.4713C40.3762 43.6754 40.3704 43.8738 40.3718 44.0721C40.3718 44.4687 40.3718 44.862 40.3718 45.2519V47.5493C40.3718 47.9243 40.3718 48.2963 40.3718 48.6626C40.3718 48.8479 40.3791 49.0274 40.3718 49.2127C40.3665 49.3045 40.3553 49.3959 40.3384 49.4863C40.3186 49.5753 40.2943 49.6632 40.2656 49.7498C40.1471 50.0887 39.9436 50.3919 39.6744 50.6308C39.4052 50.8697 39.0792 51.0363 38.7271 51.1149C38.6431 51.1342 38.5581 51.1491 38.4724 51.1598C38.3866 51.167 38.3007 51.1699 38.2148 51.1728H36.7375H33.1716L28.0075 51.1598L26.603 51.1525H26.2391H26.114C26.114 51.1525 26.1562 51.1525 26.2391 51.1525H26.603L28.0075 51.1453L33.1716 51.1337H36.7375H37.7141C38.046 51.125 38.3851 51.1612 38.7111 51.0758C39.0487 50.9956 39.3602 50.8317 39.6168 50.5993C39.8733 50.3669 40.0665 50.0736 40.1783 49.7469C40.3034 49.4125 40.286 49.0491 40.286 48.6814V47.5682C40.286 46.8183 40.286 46.051 40.286 45.2707V44.0909C40.286 43.8926 40.286 43.6914 40.2758 43.4974C40.2366 43.1007 40.0812 42.7242 39.8289 42.4145C39.702 42.2613 39.5552 42.1255 39.3923 42.0106C39.2231 41.8998 39.0395 41.8126 38.8465 41.7515C38.6511 41.6949 38.4489 41.6647 38.2454 41.6618H28.8663H26.2464C26.0813 41.6574 25.9161 41.6686 25.753 41.695C25.4355 41.7497 25.1359 41.8799 24.8797 42.0743C24.6355 42.2573 24.4356 42.4923 24.2946 42.762C24.1535 43.0318 24.075 43.3296 24.0647 43.6334C24.0574 44.2226 24.0647 44.7916 24.0647 45.3344C24.0647 46.4187 24.0647 47.3988 24.0647 48.2601C24.0647 48.4758 24.0647 48.6843 24.0647 48.8841C24.0573 49.0752 24.068 49.2667 24.0967 49.4559C24.1665 49.8505 24.35 50.2165 24.6249 50.5095C24.8998 50.8024 25.2543 51.0097 25.6453 51.1062C25.7632 51.1355 25.8835 51.1539 26.0048 51.1612L26.114 51.1424Z" fill="#263238"/>
<path d="M35.4141 50.2C37.3401 50.2 38.9014 48.647 38.9014 46.7314C38.9014 44.8158 37.3401 43.2628 35.4141 43.2628C33.4881 43.2628 31.9268 44.8158 31.9268 46.7314C31.9268 48.647 33.4881 50.2 35.4141 50.2Z" fill="#263238"/>
<path d="M36.3076 49.5645C36.6026 49.4556 36.8824 49.3097 37.1402 49.1302C37.4144 48.9302 37.6525 48.6854 37.8446 48.4063C38.0837 48.0677 38.242 47.6793 38.3073 47.2706C38.3727 46.8619 38.3433 46.4438 38.2216 46.0481C38.1264 45.7233 37.9758 45.4173 37.7762 45.1433C37.5881 44.893 37.3679 44.6681 37.1212 44.4745C37.1212 44.4745 37.1431 44.4832 37.178 44.5064C37.2319 44.5397 37.2838 44.576 37.3337 44.615C37.517 44.7585 37.6805 44.9255 37.8199 45.1115C38.0291 45.3871 38.1877 45.6973 38.2885 46.0279C38.418 46.4329 38.4504 46.8625 38.3832 47.2823C38.3159 47.7021 38.1509 48.1004 37.9014 48.4454C37.7033 48.7273 37.457 48.9723 37.1736 49.1692C36.9834 49.3031 36.7758 49.4107 36.5565 49.4892C36.4976 49.5117 36.4373 49.5305 36.376 49.5456C36.3547 49.5563 36.3314 49.5627 36.3076 49.5645Z" fill="#FAFAFA"/>
<path d="M76.7547 24.0697C76.8727 25.3329 76.6111 26.6025 76.0031 27.7177C75.3951 28.8329 74.468 29.7435 73.3392 30.3342C72.2105 30.9249 70.9308 31.1692 69.6624 31.036C68.3939 30.9028 67.1938 30.3981 66.214 29.586C65.2341 28.7738 64.5186 27.6907 64.1582 26.4738C63.7977 25.2569 63.8085 23.961 64.1891 22.7502C64.5697 21.5393 65.3031 20.4681 66.2963 19.6722C67.2895 18.8763 68.4979 18.3914 69.7684 18.2791C71.4665 18.127 73.156 18.6514 74.4658 19.737C75.7756 20.8227 76.5988 22.3809 76.7547 24.0697Z" fill="#13829F"/>
<g opacity="0.3">
<path d="M75.2117 24.0494C75.1826 24.0494 75.1433 23.8424 75.0312 23.4704C74.8742 22.9573 74.6386 22.4715 74.3326 22.03C74.1214 21.7286 73.8773 21.4514 73.6048 21.2034C73.2932 20.9187 72.9459 20.6754 72.5714 20.4795C72.3699 20.3739 72.1607 20.2834 71.9456 20.2088C71.722 20.1306 71.4928 20.0691 71.26 20.025C71.0199 19.9791 70.7766 19.9515 70.5323 19.9425C70.2796 19.9339 70.0266 19.9441 69.7754 19.9729C69.5249 20.0038 69.2769 20.0522 69.0332 20.1176C68.7971 20.1851 68.5664 20.2703 68.3433 20.3724C67.9203 20.5656 67.5281 20.8192 67.1789 21.1252C66.8618 21.4024 66.582 21.7192 66.3463 22.0676C66.1419 22.3733 65.972 22.7005 65.8398 23.0433C65.648 23.5441 65.5361 24.0716 65.508 24.6068C65.4862 24.9889 65.4992 25.2032 65.4687 25.2075C65.4381 25.2119 65.3857 25.0005 65.361 24.6068C65.3333 24.047 65.4103 23.4869 65.588 22.955C65.8526 22.155 66.3209 21.4368 66.9474 20.8704C67.3168 20.5338 67.7348 20.2542 68.1875 20.0409C68.4271 19.9282 68.6753 19.8348 68.9298 19.7615C69.1921 19.6869 69.4597 19.6322 69.7303 19.5979C70.0013 19.5672 70.2743 19.5566 70.5469 19.5661C70.8119 19.5778 71.0756 19.6098 71.3357 19.6616C71.8263 19.7611 72.2992 19.9328 72.7388 20.1712C73.4829 20.5734 74.11 21.1598 74.5596 21.8736C74.8604 22.3478 75.0697 22.8736 75.1767 23.424C75.2379 23.8323 75.2379 24.0494 75.2117 24.0494Z" fill="black"/>
</g>
<g opacity="0.3">
<path d="M71.1506 27.4919L71.2394 28.3374L70.4796 28.417L70.3938 27.5933C69.6369 27.6251 68.8917 27.4659 68.4405 27.185L68.7607 26.2194C69.2281 26.4769 69.7547 26.6091 70.289 26.6031L70.1565 25.3422C69.2934 25.2249 68.3226 25.044 68.2091 23.9626C68.1247 23.162 68.6385 22.415 69.8232 22.1545L69.7359 21.3163L70.4957 21.2381L70.5815 22.0604C71.1278 22.0349 71.6723 22.138 72.1709 22.3615L71.89 23.3256C71.5113 23.1566 71.1027 23.0641 70.6878 23.0534L70.8217 24.3375C71.6848 24.4461 72.641 24.627 72.7517 25.6954C72.8346 26.4858 72.3267 27.2256 71.1506 27.4919ZM70.043 24.2318L69.9295 23.1591C69.538 23.2909 69.4011 23.5268 69.4273 23.7758C69.4535 24.0248 69.6966 24.1609 70.043 24.2318ZM71.5392 25.9169C71.5116 25.652 71.2758 25.5318 70.9381 25.4522L71.0473 26.4945C71.4184 26.3729 71.564 26.1586 71.5392 25.9169Z" fill="black"/>
</g>
<path d="M77.4187 40.2347C77.0983 40.8991 76.5869 41.454 75.9493 41.8292C75.3116 42.2044 74.5764 42.3829 73.8366 42.3423C73.0969 42.3016 72.3859 42.0435 71.7938 41.6007C71.2016 41.1579 70.7548 40.5503 70.51 39.8548C70.2653 39.1593 70.2335 38.4072 70.4187 37.6937C70.6039 36.9802 70.9978 36.3375 71.5505 35.8468C72.1033 35.3561 72.7899 35.0396 73.5236 34.9373C74.2573 34.835 75.005 34.9515 75.6721 35.2722C76.1144 35.4839 76.5105 35.7802 76.8376 36.1442C77.1648 36.5082 77.4166 36.9328 77.5788 37.3936C77.741 37.8544 77.8104 38.3425 77.7829 38.83C77.7554 39.3175 77.6316 39.7948 77.4187 40.2347Z" fill="#13829F"/>
<g opacity="0.3">
<path d="M76.6608 39.77C76.6758 39.6541 76.7031 39.54 76.7423 39.4298C76.8174 39.1275 76.8454 38.8155 76.8252 38.5048C76.8095 38.2919 76.771 38.0812 76.7102 37.8765C76.6387 37.6431 76.5374 37.4198 76.409 37.212C76.3395 37.1 76.2622 36.9931 76.1775 36.8921C75.9013 36.5637 75.5527 36.3031 75.1587 36.1306C75.0243 36.0721 74.8856 36.0237 74.7439 35.9858C74.6058 35.9498 74.4652 35.9242 74.3233 35.9091C74.1865 35.8935 74.0488 35.8887 73.9114 35.8946C73.7789 35.8998 73.6471 35.9148 73.5169 35.9395C73.2757 35.9831 73.0413 36.0581 72.8197 36.1625C72.6262 36.2545 72.4432 36.3672 72.2739 36.4983C72.0288 36.6923 71.8152 36.9227 71.6408 37.1816C71.5842 37.2845 71.5174 37.3814 71.4414 37.4711C71.459 37.3528 71.5022 37.2397 71.568 37.1396C71.7217 36.8493 71.9291 36.5905 72.1793 36.3767C72.351 36.2282 72.5402 36.1008 72.7426 35.9974C72.9758 35.8785 73.224 35.7914 73.4805 35.7383C73.7676 35.6792 74.062 35.6636 74.3538 35.692C74.5071 35.7072 74.6589 35.7343 74.8079 35.773C74.961 35.8141 75.1109 35.8664 75.2562 35.9294C75.4011 35.994 75.5407 36.0694 75.6739 36.1552C75.8025 36.2392 75.9241 36.3331 76.0378 36.4361C76.1486 36.535 76.2508 36.643 76.3435 36.7589C76.433 36.8683 76.5137 36.9844 76.5851 37.1063C76.7189 37.3328 76.8213 37.5763 76.8893 37.8302C76.9472 38.0486 76.9789 38.2731 76.9839 38.499C76.9921 38.8248 76.9393 39.1493 76.8281 39.4559C76.7947 39.5709 76.7377 39.6779 76.6608 39.77Z" fill="black"/>
</g>
<g opacity="0.3">
<path d="M73.6032 40.2854L73.3951 40.7327L72.9919 40.5474L73.1957 40.1131C72.8435 39.9363 72.548 39.665 72.3428 39.3299L72.7925 38.9434C72.9486 39.2107 73.1718 39.4332 73.4402 39.589L73.7531 38.9202C73.3558 38.6061 72.9264 38.2268 73.1942 37.655C73.3922 37.2308 73.871 37.0093 74.5405 37.2308L74.7487 36.7864L75.1504 36.9731L74.9466 37.4074C75.2271 37.5562 75.468 37.769 75.6496 38.0285L75.213 38.428C75.0747 38.2315 74.8985 38.0642 74.6948 37.9358L74.3775 38.6162C74.7749 38.926 75.197 39.301 74.9335 39.8655C74.7458 40.2854 74.2713 40.4982 73.6032 40.2854ZM74.0268 38.3296L74.2931 37.7621C74.0573 37.7114 73.9176 37.7882 73.8565 37.9199C73.7953 38.0516 73.8769 38.1892 74.0268 38.3267V38.3296ZM74.2698 39.6151C74.3339 39.4703 74.2538 39.3444 74.1083 39.204L73.8506 39.757C74.0704 39.8033 74.216 39.7396 74.2698 39.6122V39.6151Z" fill="black"/>
</g>
<path d="M71.4791 37.3901C71.4791 37.3901 71.4355 37.5073 71.3641 37.7201C71.2678 38.0213 71.2225 38.3364 71.2302 38.6524C71.2359 38.8697 71.2657 39.0858 71.319 39.2966C71.3824 39.5402 71.4758 39.775 71.597 39.9958C71.735 40.2345 71.9065 40.4524 72.1064 40.6429C72.5384 41.0552 73.0919 41.319 73.6856 41.3957C73.9598 41.4311 74.2378 41.4272 74.5109 41.3841C74.9762 41.31 75.4155 41.1214 75.7888 40.8355C76.041 40.643 76.2598 40.4107 76.4365 40.1478C76.5573 39.9596 76.614 39.8467 76.6213 39.8511C76.6126 39.8799 76.6004 39.9077 76.5849 39.9336C76.548 40.012 76.5067 40.0884 76.4612 40.1623C76.2916 40.4358 76.0754 40.6778 75.8223 40.8774C75.4464 41.1785 74.9987 41.378 74.5225 41.4565C74.2425 41.5033 73.957 41.5087 73.6754 41.4724C73.3732 41.4304 73.0789 41.3441 72.8021 41.2162C72.5288 41.0824 72.2772 40.9087 72.0555 40.7008C71.8512 40.505 71.6767 40.2807 71.5373 40.0349C71.4105 39.8117 71.3127 39.5733 71.2462 39.3256C71.1948 39.1097 71.1679 38.8887 71.1662 38.6669C71.1626 38.3459 71.2163 38.0268 71.3248 37.7245C71.3533 37.6426 71.3873 37.5628 71.4267 37.4856C71.4403 37.4518 71.4579 37.4197 71.4791 37.3901Z" fill="#263238"/>
<path d="M19.1307 42.8633C19.308 44.0537 19.1262 45.2696 18.6083 46.3571C18.0904 47.4446 17.2597 48.3549 16.2214 48.9725C15.1831 49.5902 13.9838 49.8875 12.7755 49.8268C11.5671 49.7661 10.4041 49.3502 9.43358 48.6317C8.46307 47.9131 7.72876 46.9243 7.32362 45.7904C6.91849 44.6565 6.86074 43.4286 7.15771 42.262C7.45468 41.0955 8.093 40.0428 8.99185 39.2373C9.89069 38.4318 11.0096 37.9098 12.207 37.7372C13 37.6215 13.8082 37.6624 14.5854 37.8574C15.3625 38.0525 16.0934 38.3978 16.7364 38.8739C17.3793 39.3499 17.9217 39.9472 18.3325 40.6317C18.7433 41.3162 19.0146 42.0745 19.1307 42.8633Z" fill="#13829F"/>
<g opacity="0.3">
<path d="M17.6694 42.9241C17.6417 42.9241 17.5922 42.7316 17.4671 42.3914C17.2928 41.9129 17.0443 41.4645 16.7306 41.0624C16.5157 40.789 16.2717 40.5395 16.0029 40.3183C15.6919 40.0668 15.3494 39.8566 14.984 39.693C14.7877 39.6034 14.5848 39.5288 14.3771 39.47C14.1614 39.4048 13.941 39.3564 13.7177 39.3252C13.4872 39.2941 13.2546 39.2806 13.022 39.2847C12.7824 39.2908 12.5436 39.314 12.3074 39.3542C12.0714 39.3969 11.8388 39.4569 11.6117 39.5337C11.3917 39.6102 11.1777 39.7026 10.9713 39.8102C10.7721 39.9145 10.5813 40.0341 10.4007 40.1678C10.2264 40.2947 10.0615 40.4341 9.90731 40.5847C9.37132 41.1087 8.97167 41.7546 8.74292 42.4666C8.58759 42.9515 8.5095 43.4575 8.5115 43.9664C8.5115 44.3283 8.53333 44.531 8.5115 44.5353C8.48967 44.5397 8.42126 44.3442 8.37905 43.9736C8.32164 43.4448 8.3651 42.91 8.50713 42.3972C8.6035 42.0404 8.74226 41.6963 8.92049 41.3722C9.12785 40.9997 9.38435 40.6565 9.68316 40.3516C9.84484 40.1861 10.019 40.0332 10.2042 39.8942C10.3969 39.7478 10.6008 39.6166 10.8141 39.5019C11.0351 39.383 11.2653 39.2818 11.5025 39.1993C11.9918 39.0274 12.5061 38.9364 13.0249 38.93C13.2762 38.9274 13.5273 38.9438 13.776 38.9793C14.0162 39.0132 14.2532 39.0664 14.4848 39.1385C14.7066 39.206 14.9231 39.2897 15.1325 39.3889C15.8578 39.7315 16.4824 40.254 16.946 40.9061C17.2552 41.3404 17.4812 41.8277 17.6126 42.3436C17.6883 42.7185 17.6898 42.9212 17.6694 42.9241Z" fill="black"/>
</g>
<g opacity="0.3">
<path d="M14.0045 46.3927L14.1325 47.1889L13.4179 47.3032L13.2927 46.5273C12.5781 46.5968 11.8634 46.4853 11.421 46.2378L11.6742 45.3069C12.13 45.5291 12.6363 45.6289 13.1428 45.5965L12.9521 44.4094C12.1269 44.3442 11.1983 44.2212 11.0338 43.2049C10.913 42.4507 11.3598 41.7153 12.4689 41.4084L12.3408 40.618L13.0569 40.5051L13.1807 41.2796C13.6971 41.2271 14.2187 41.2966 14.7031 41.4822L14.4862 42.4145C14.1184 42.2738 13.726 42.2073 13.332 42.2191L13.5271 43.4279C14.3509 43.4858 15.2649 43.6103 15.4265 44.6135C15.5458 45.3518 15.1048 46.0785 14.0045 46.3927ZM12.7833 43.3627L12.6203 42.3494C12.255 42.4942 12.1385 42.7258 12.1764 42.9603C12.2142 43.1948 12.4529 43.3135 12.7833 43.3627ZM14.2897 44.8813C14.249 44.6323 14.0205 44.5295 13.6959 44.4716L13.8531 45.4531C14.198 45.3243 14.3261 45.1086 14.2897 44.8813Z" fill="black"/>
</g>
<path d="M8.4785 44.4123C8.48287 44.424 8.48627 44.4361 8.48868 44.4485C8.49596 44.476 8.5047 44.5122 8.51488 44.5556L8.55273 44.7293C8.56835 44.8091 8.58876 44.8879 8.61386 44.9653C8.75846 45.4623 8.98522 45.932 9.28483 46.355C9.49149 46.646 9.73021 46.913 9.99656 47.1512L10.2251 47.3365C10.2644 47.3669 10.3022 47.4002 10.343 47.4292L10.471 47.5131C10.5569 47.5681 10.6413 47.6304 10.733 47.6825L11.0154 47.8273C11.4224 48.0273 11.8562 48.1682 12.3035 48.2456C12.7853 48.3215 13.2756 48.3268 13.759 48.2616C14.2405 48.1842 14.7081 48.0379 15.1475 47.8273C15.5527 47.6244 15.9266 47.3651 16.258 47.0571L16.4851 46.8298C16.5593 46.7546 16.6204 46.6706 16.6874 46.5939L16.7849 46.4766C16.8169 46.4361 16.8431 46.3941 16.8708 46.3536C16.9276 46.271 16.9814 46.19 17.0367 46.1104C17.2209 45.8051 17.3712 45.4808 17.485 45.1433C17.6488 44.6519 17.7289 44.1367 17.7222 43.619C17.7251 43.5377 17.7217 43.4564 17.7121 43.3758C17.7121 43.3077 17.7019 43.2484 17.699 43.1977C17.696 43.147 17.699 43.1181 17.6917 43.0877C17.6898 43.0752 17.6898 43.0625 17.6917 43.05C17.6961 43.0621 17.6986 43.0748 17.699 43.0877C17.699 43.1166 17.7077 43.1528 17.7135 43.1962C17.7193 43.2397 17.7266 43.3063 17.7353 43.3743C17.7465 43.4554 17.7518 43.5371 17.7514 43.619C17.7702 44.1409 17.6973 44.6622 17.5359 45.1593C17.4252 45.5032 17.2753 45.8335 17.0891 46.1437L16.9246 46.3898C16.8955 46.4317 16.8693 46.4752 16.8373 46.5157L16.7398 46.6344C16.6728 46.714 16.6103 46.7994 16.536 46.8762C16.4618 46.9529 16.3905 47.0296 16.3061 47.1063C15.9708 47.4216 15.5913 47.6869 15.1795 47.8939C14.288 48.339 13.2762 48.4877 12.2933 48.318C11.8379 48.2369 11.3966 48.0907 10.9834 47.8837L10.6923 47.7288C10.5991 47.6767 10.5147 47.613 10.4274 47.5566L10.2978 47.4711C10.2571 47.4407 10.2192 47.406 10.1785 47.3756L9.94853 47.1874C9.68082 46.9437 9.44158 46.6708 9.23535 46.3738C8.93655 45.9441 8.71494 45.466 8.58038 44.9609C8.55541 44.8829 8.53691 44.8031 8.52507 44.7221C8.51343 44.654 8.50324 44.5961 8.49305 44.5455L8.47559 44.4369C8.47585 44.4286 8.47682 44.4204 8.4785 44.4123Z" fill="#263238"/>
</g>
<defs>
<clipPath id="clip0_1035_3456">
<rect width="85" height="69" fill="white" transform="translate(0 0.5)"/>
</clipPath>
</defs>
</svg>
